# xmcd CD database file
#
# Track frame offsets:
#	150
#	21080
#	39460
#	62337
#	83195
#	100182
#	116525
#	133375
#	153650
#	169427
#	193187
#	215075
#	234077
#	257030
#	274907
#	293720
#
# Disc length: 4096 seconds
#
# Revision: 1
# Processed by: cddbd v1.5.2PL0 Copyright (c) Steve Scherf et al.
# Submitted via: jetAudio 5
#
DISCID=ea0ffe10
DTITLE=Various Artist - 希望2000
DYEAR=1999
DGENRE=流行
TTITLE0=希望
TTITLE1=我為你傷心
TTITLE2=舊愛還是最美
TTITLE3=sorry
TTITLE4=真話傷人很痛
TTITLE5=believe
TTITLE6=你愛上他
TTITLE7=對你的愛還依然在
TTITLE8=空白
TTITLE9=思念的翅膀
TTITLE10=棋子
TTITLE11=冷戰
TTITLE12=情不自禁
TTITLE13=心不設防
TTITLE14=記事本
TTITLE15=lover's concerto
EXTD=
EXTT0=
EXTT1=
EXTT2=
EXTT3=
EXTT4=
EXTT5=
EXTT6=
EXTT7=
EXTT8=
EXTT9=
EXTT10=
EXTT11=
EXTT12=
EXTT13=
EXTT14=
EXTT15=
PLAYORDER=
